<svg width="61" height="59" viewBox="0 0 61 59" fill="none" xmlns="http://www.w3.org/2000/svg">
<path d="M24.6984 0V11.2084C21.7033 12.8761 19.4133 14.9598 17.8213 17.4595C16.2294 19.9593 15.0292 22.586 14.2207 25.3326C13.4087 28.0791 13.0027 31.1536 13.0027 34.5489H24.6984V59H0V43.811C0 34.6723 0.872548 27.7124 2.62121 22.9245C4.3663 18.14 7.06586 13.7399 10.7128 9.72756C14.3596 5.71172 19.0215 2.47155 24.6984 0ZM61 0V11.2084C58.0048 12.8761 55.7149 14.9598 54.1229 17.4595C52.5309 19.9593 51.3307 22.586 50.5223 25.3326C49.7103 28.0791 49.3043 31.1536 49.3043 34.5489H61V59H36.3016V43.811C36.3016 34.6723 37.1741 27.7124 38.9228 22.9245C40.6679 18.14 43.3496 13.7399 46.968 9.72756C50.5828 5.71525 55.2626 2.47155 61 0.00352576V0Z" fill="#4543DC"/>
</svg>
